<?xml version="1.0" encoding="utf-8"?>
<svg viewBox="20.265 50.649 83.911 54.702" width="83.911" height="54.702" xmlns="http://www.w3.org/2000/svg">
  <defs>
    <style type="text/css" id="style6">
    line, polyline, path, rect, circle {
      fill: none;
      stroke: #000000;
      stroke-linecap: round;
      stroke-linejoin: round;
      stroke-miterlimit: 10.00;
    }
  </style>
  </defs>
  <path fill-rule="evenodd" clip-rule="evenodd" d="M 28.369 60.236 C 28.369 59.794 28.369 59.352 28.369 58.91 C 30.597 57.904 33.148 57.975 35.667 57.583 C 36.067 57.521 36.528 57.272 36.955 57.205 C 38.287 56.993 39.725 57.211 40.389 56.352 C 47.016 58.348 54.413 60.14 61.102 62.226 C 61.908 62.477 62.632 62.877 63.463 63.173 C 65.427 63.875 67.553 64.264 69.473 64.879 C 70.415 65.18 71.293 65.674 72.156 66.016 C 73.009 66.354 73.847 66.886 74.839 66.869 C 74.459 66.415 73.326 66.625 73.122 66.016 C 78.244 66.989 81.851 69.3 86.967 70.279 C 86.483 69.632 84.732 69.284 83.532 68.953 C 83.59 68.445 84.303 69.079 84.498 68.764 C 80.346 67.47 76.137 66.228 71.727 65.163 C 71.885 64.757 72.383 65.222 72.8 65.163 C 71.343 64.513 69.572 64.171 67.864 63.742 C 66.166 63.315 64.404 63.043 62.819 62.51 C 63.713 62.049 64.833 62.656 65.717 62.794 C 70.618 63.563 75.323 65.273 80.206 66.679 C 84.278 67.852 88.337 69.324 92.117 70.848 C 93.349 71.345 94.557 71.473 95.551 72.174 C 95.757 73.979 95.479 75.438 95.123 76.533 C 93.978 76.202 92.606 77.069 92.117 76.059 C 89.922 76.304 87.69 77.416 85.142 77.386 C 85.037 77.762 85.741 77.425 85.679 77.765 C 85.546 79.511 85.224 81.091 85.034 82.786 C 84.982 83.025 85.526 82.558 85.571 82.881 C 86.144 81.559 85.772 79.079 86.429 77.576 C 86.997 77.982 86.61 78.82 86.536 79.471 C 86.401 80.669 86.739 82.417 86.215 83.45 C 85.582 84.698 82.952 85.331 81.385 85.724 C 79.37 86.228 77.172 86.565 75.16 86.482 C 73.031 88.645 70.673 90.605 67.969 92.261 C 62.236 95.367 54.357 99.534 44.682 99.177 C 41.103 99.046 37.474 98.688 34.701 97.282 C 33.171 96.507 30.847 94.626 31.052 92.545 C 31.494 88.06 35.944 85.69 37.383 81.933 C 36.551 80.916 37.516 79.836 37.491 78.901 C 37.476 78.363 37.064 77.951 37.169 77.386 C 37.267 76.859 37.718 76.534 37.598 75.775 C 37.56 75.531 37.297 75.364 37.276 75.111 C 37.243 74.699 37.69 74.245 37.276 73.785 C 37.953 73.548 37.63 73.016 37.813 72.364 C 37.565 71.92 36.772 71.956 36.418 71.606 C 35.647 67.687 34.29 63.519 30.193 62.226 C 29.807 61.367 28.828 61.03 28.369 60.236 Z M 41.14 59.574 C 41.105 59.445 40.987 59.393 41.033 59.194 C 40.905 58.962 40.627 59.389 40.496 59.1 C 40.534 58.755 40.714 58.534 40.818 58.248 C 40.423 58.186 40.158 58.009 40.282 57.49 C 40.533 57.46 40.684 57.34 41.033 57.395 C 41.084 56.466 40.093 57.192 39.852 57.395 C 39.852 57.616 39.852 57.837 39.852 58.058 C 39.327 58.132 39.06 58.433 38.671 58.627 C 38.352 58.588 38.226 57.89 37.813 58.248 C 38.893 58.904 38.767 60.628 39.745 61.374 C 38.796 61.316 38.542 61.191 37.813 60.9 C 37.001 61.882 38.334 63.229 38.242 64.501 C 37.939 65.085 37.532 65.579 37.491 66.396 C 38.747 67.598 39.562 69.241 39.745 71.038 C 39.79 71.486 39.897 71.963 40.388 71.986 C 40.242 71.536 40.214 70.89 40.496 70.564 C 39.886 69.903 39.878 68.71 39.315 68.006 C 39.542 67.839 39.632 67.793 39.959 67.912 C 39.899 67.197 39.278 65.504 39.959 64.501 C 40.477 63.738 41.929 63.549 42.107 64.501 C 41.936 64.761 41.671 64.938 41.57 65.259 C 42.835 65.456 43.837 66.107 43.394 67.059 C 43.8 67.196 43.6 66.798 43.931 66.87 C 43.842 67.347 44.039 67.424 44.36 67.912 C 44.097 68.152 44.132 67.712 43.716 67.817 C 43.555 67.958 43.684 68.357 43.287 68.291 C 42.836 67.294 42.881 65.371 41.247 65.732 C 41.145 66.328 42.131 65.963 41.999 66.585 C 42.046 66.943 41.478 67.045 41.785 67.343 C 42.377 67.38 42.059 66.825 42.214 66.679 C 42.458 66.653 42.618 66.702 42.644 66.869 C 42.341 68.067 43.317 68.661 43.824 69.427 C 43.666 70.065 44.147 70.47 44.36 71.038 C 44.59 70.245 45.223 70.323 45.648 69.806 C 45.457 69.566 44.99 70.031 44.897 69.617 C 45.005 69.491 44.998 69.265 45.219 69.238 C 45.432 69.239 45.356 69.497 45.648 69.428 C 46.015 68.857 45.866 67.763 45.648 67.154 C 45.868 66.927 45.971 66.485 45.541 66.396 C 44.726 66.921 45.793 68.085 45.433 68.764 C 45.229 68.724 45.164 68.56 44.897 68.575 C 44.78 68.819 44.626 69.031 44.36 69.144 C 44.158 68.974 43.864 68.887 43.717 68.67 C 43.859 68.385 44.137 68.22 44.682 68.291 C 44.848 66.937 43.666 66.328 43.609 65.165 C 43.129 65.195 42.724 65.364 42.536 64.975 C 42.607 64.344 42.176 64.156 41.999 63.744 C 42.145 63.714 42.204 63.609 42.43 63.649 C 43.043 64.37 44.034 64.759 44.576 65.544 C 44.747 65.474 44.551 65.08 44.898 65.165 C 45.123 65.471 44.822 66.242 45.542 66.112 C 45.824 65.836 45.446 65.566 45.542 65.165 C 44.303 64.105 42.471 62.577 40.391 62.891 C 40.726 62.996 41.42 62.795 41.464 63.365 C 40.866 63.361 40.524 63.604 39.96 63.838 C 39.812 63.367 40.455 63.28 40.175 62.985 C 39.482 62.913 39.888 63.596 39.317 63.27 C 39.202 63.624 39.583 63.54 39.531 63.838 C 38.637 64.411 38.567 63.377 38.458 62.797 C 38.69 62.583 38.824 62.874 39.209 62.797 C 40.161 61.982 41.54 62.519 43.072 62.797 C 43.226 62.671 43.226 62.259 43.072 62.133 C 42.181 62.386 41.496 61.886 40.497 61.944 C 40.435 61.746 40.231 61.674 40.282 61.376 C 40.636 61.182 41.101 61.562 41.356 61.754 C 41.412 61.146 42.009 61.471 42.429 61.565 C 42.547 61.018 42.007 61.052 42.107 60.523 C 42.188 60.279 42.449 60.194 42.858 60.239 C 42.901 59.885 42.773 59.682 42.429 59.67 C 42.088 60.151 41.766 60.213 41.248 60.144 C 41.28 60.495 41.72 60.485 41.57 60.997 C 41.129 61.284 40.461 60.87 40.068 61.092 C 39.508 60.701 39.562 59.769 38.994 59.386 C 39.305 59.06 39.392 58.537 39.96 58.439 C 39.963 58.627 40.254 58.559 40.175 58.818 C 40.189 59.177 39.689 59.083 39.639 59.386 C 39.876 59.587 40.582 59.375 40.497 59.859 C 40.188 59.87 39.794 59.808 39.639 59.954 C 39.639 60.08 39.639 60.207 39.639 60.333 C 40.314 60.235 40.998 60.143 41.14 59.574 Z M 43.822 60.047 C 43.741 59.007 42.495 58.192 41.247 57.868 C 41.101 59.108 43.061 59.294 43.822 60.047 Z M 37.062 60.711 C 36.43 59.84 35.616 58.251 34.379 58.531 C 34.351 59.156 35.066 59.124 34.915 59.858 C 35.235 59.993 35.28 59.78 35.559 59.953 C 35.544 60.787 36.143 61.08 36.203 61.847 C 36.67 61.713 36.697 62.172 36.955 61.942 C 36.802 61.512 36.859 61.066 37.062 60.711 Z M 32.876 58.815 C 33.551 60.4 34.971 61.324 35.452 63.079 C 35.779 63.075 35.998 63.165 36.095 63.364 C 36.095 63.552 35.803 63.484 35.881 63.743 C 36.11 64.005 36.466 63.567 36.525 63.932 C 36.341 64.2 36.103 63.896 36.095 64.216 C 36.217 64.604 36.572 64.239 36.954 64.311 C 37.016 64.751 36.807 64.883 36.954 65.164 C 37.997 65.044 37.208 63.836 37.169 63.268 C 36.84 63.2 36.853 63.432 36.524 63.363 C 36.162 62.631 35.064 61.894 35.558 60.994 C 35.344 60.994 35.129 60.994 34.915 60.994 C 34.334 60.149 34.198 58.911 33.09 58.531 C 33.039 58.643 32.976 58.746 32.876 58.815 Z M 32.555 60.9 C 31.866 60.674 31.337 59.843 30.73 59.858 C 30.974 60.692 31.416 60.954 31.159 61.847 C 32.09 62.083 32.561 63.318 33.52 62.7 C 33.848 64.022 34.866 64.733 35.13 66.112 C 35.576 66.157 35.298 65.565 35.667 65.543 C 35.748 66.542 35.893 67.972 36.525 68.764 C 36.926 67.879 36.281 66.698 36.74 65.732 C 36.019 65.737 36.125 65.012 35.559 64.879 C 35.206 63.195 33.62 61.797 33.091 59.953 C 32.546 59.771 32.669 58.999 32.018 58.91 C 31.946 58.91 31.875 58.91 31.803 58.91 C 31.16 59.994 32.874 60.122 32.555 60.9 Z M 41.355 59.858 C 41.691 59.903 41.657 59.62 41.784 59.479 C 41.531 59.222 41.064 59.635 41.355 59.858 Z M 29.871 60.427 C 30.201 60.571 30.201 59.808 29.871 59.953 C 29.871 60.11 29.871 60.268 29.871 60.427 Z M 42.642 60.9 C 42.984 61.22 42.636 61.578 42.857 61.942 C 43.757 62.021 42.817 61.029 43.501 60.994 C 43.641 61.092 43.896 61.087 44.037 61.184 C 44.341 60.98 44.215 60.679 44.145 60.331 C 44.001 60.331 43.859 60.331 43.715 60.331 C 43.744 61.067 42.973 60.508 42.642 60.9 Z M 41.033 60.806 C 41.018 60.503 40.789 60.388 40.388 60.427 C 40.218 60.894 40.758 61.019 41.033 60.806 Z M 54.769 60.994 C 54.748 60.815 54.143 60.675 54.018 60.9 C 54.214 60.925 54.62 61.241 54.769 60.994 Z M 58.096 61.847 C 57.056 61.533 56.009 61.048 54.984 61.185 C 55.121 61.189 55.132 61.306 55.306 61.28 C 57.539 61.961 59.633 62.765 61.853 63.459 C 63.348 64.127 64.6 65.516 66.253 65.732 C 64.183 63.967 61.073 62.749 58.096 61.847 Z M 43.822 62.132 C 44.183 62.161 44.753 62.005 44.681 62.416 C 44.281 62.587 44.108 63.246 44.467 63.553 C 44.468 63.302 44.407 62.995 44.681 62.985 C 44.891 63.162 44.714 63.332 44.681 63.553 C 45.061 63.922 45.335 63.777 45.754 63.553 C 46.201 64.189 45.805 65.512 46.827 65.353 C 46.529 64.795 46.394 64.094 46.398 63.269 C 45.909 63.385 45.976 63.009 45.539 63.079 C 45.368 63.15 45.563 63.544 45.217 63.459 C 44.941 63.347 44.616 62.335 45.217 62.322 C 45.454 62.396 45.197 62.908 45.647 62.796 C 45.746 62.631 45.643 62.287 45.969 62.322 C 46.289 62.324 46.106 62.769 46.29 62.891 C 46.671 62.942 46.554 62.555 46.935 62.606 C 47.076 62.987 47.505 63.113 47.793 63.364 C 47.89 62.519 47.079 62.478 46.935 61.848 C 45.774 61.98 45.121 61.733 43.929 61.564 C 43.806 61.675 43.809 61.898 43.822 62.132 Z M 36.525 62.795 C 36.854 62.94 36.854 62.176 36.525 62.321 C 36.525 62.479 36.525 62.637 36.525 62.795 Z M 43.394 62.416 C 43.378 62.682 43.657 62.689 43.93 62.7 C 44.05 62.317 43.6 62.232 43.394 62.416 Z M 40.71 65.164 C 40.596 65.075 40.677 64.814 40.388 64.879 C 40.418 65.253 39.93 65.169 39.959 65.543 C 40.287 65.632 40.295 66.003 40.71 66.017 C 41 65.77 40.579 65.731 40.603 65.448 C 40.711 65.448 40.73 65.371 40.818 65.353 C 41.037 65.421 41.243 65.649 41.461 65.448 C 41.198 65.095 41.321 64.922 41.355 64.406 C 41.217 64.401 41.206 64.285 41.033 64.311 C 40.713 64.407 40.939 64.986 40.71 65.164 Z M 36.632 65.164 C 36.683 64.866 36.498 64.776 36.31 64.69 C 36.102 64.872 36.198 65.269 36.632 65.164 Z M 47.257 65.637 C 46.798 65.717 46.443 65.678 46.184 65.732 C 45.926 66.127 46.228 66.398 46.398 66.679 C 46.577 66.521 47.181 66.739 47.149 66.395 C 47.124 66.091 46.544 66.696 46.613 66.205 C 46.923 66.037 47.186 65.827 47.686 65.826 C 47.724 66.155 47.141 66.187 47.472 66.49 C 47.87 66.557 47.932 66.328 48.33 66.395 C 48.578 66.586 48.904 66.71 48.974 67.058 C 48.879 67.29 48.375 67.161 48.437 67.532 C 48.535 67.73 48.754 67.821 49.081 67.816 C 49.23 67.663 49.172 67.328 49.403 67.247 C 49.801 67.308 49.731 67.78 49.725 68.195 C 49.154 68.449 48.74 68.841 48.652 69.522 C 49.055 69.467 48.875 68.898 49.296 68.858 C 49.587 68.917 49.563 69.254 49.94 69.238 C 51.658 67.821 49.624 67.227 49.081 66.016 C 48.681 65.915 48.776 66.251 48.437 66.205 C 48.099 65.935 48.132 65.338 47.794 65.068 C 47.686 65.068 47.579 65.068 47.472 65.068 C 47.26 65.134 47.498 65.598 47.257 65.637 Z M 67.755 65.732 C 68.025 65.923 68.49 65.679 68.507 65.353 C 68.195 65.425 67.889 65.503 67.755 65.732 Z M 44.896 66.3 C 45.124 66.071 44.657 65.882 44.467 65.732 C 44.22 65.978 44.454 66.373 44.896 66.3 Z M 76.127 68.196 C 74.212 67.5 71.152 65.566 69.472 65.827 C 69.121 65.882 68.766 66.088 68.614 66.49 C 69.063 66.661 69.732 66.303 70.225 66.206 C 72.807 67.178 75.442 68.105 78.058 69.048 C 78.393 69.077 77.786 68.774 78.166 68.764 C 79.223 69.028 80.229 69.66 81.385 69.901 C 81.858 70 82.39 69.877 82.888 69.996 C 84.984 70.495 86.403 71.996 88.576 71.322 C 88.962 71.58 89.263 71.916 89.65 72.175 C 92.01 72.396 93.131 73.713 95.016 74.355 C 94.34 73.277 92.555 73.179 91.796 72.175 C 92.964 72.249 93.465 72.913 94.586 73.028 C 93.72 71.708 90.854 72.154 89.972 70.849 C 89.501 70.849 89.135 70.266 88.684 70.564 C 89.129 70.93 90.188 71.255 90.186 71.701 C 86.27 70.549 81.58 69.572 77.845 68.575 C 78.108 68.586 77.868 68.887 77.738 68.858 C 77.289 68.419 76.799 68.44 76.127 68.196 Z M 67.648 66.3 C 67.429 66.083 67.005 66.046 66.575 66.017 C 66.545 66.416 67.515 66.923 67.648 66.3 Z M 43.394 71.606 C 43.066 71.696 43.057 72.067 42.642 72.08 C 42.526 71.837 42.968 71.629 42.642 71.511 C 42.148 71.861 41.515 71.402 41.033 71.227 C 41.094 71.03 41.299 70.957 41.247 70.659 C 40.8 70.443 40.395 71.433 40.71 71.89 C 43.619 71.319 44.006 77.405 45.647 74.828 C 45.458 74.742 45.47 74.479 45.218 74.449 C 45.198 74.715 45.031 74.853 44.682 74.828 C 44.112 74.636 44.032 74.012 44.037 73.312 C 43.812 73.065 43.619 73.231 43.394 73.123 C 43.563 72.657 43.181 72.678 42.964 72.554 C 42.983 72.412 42.926 72.204 43.072 72.175 C 43.302 72.287 43.329 72.58 43.822 72.459 C 43.681 71.63 43.365 71.149 43.822 70.47 C 43.083 70.405 43.192 70.844 43.072 71.133 C 42.631 71.017 43.01 70.766 43.072 70.564 C 42.832 70.289 42.136 70.839 41.998 70.375 C 41.946 70.076 42.328 70.16 42.213 69.806 C 41.84 69.563 41.283 70.011 40.925 69.806 C 40.93 69.525 40.606 69.05 41.033 68.953 C 41.177 69.016 41.232 69.156 41.247 69.332 C 42.477 69.281 42.484 69.863 43.179 70.374 C 43.207 70.241 43.415 70.266 43.501 70.184 C 43.193 69.332 42.405 68.278 41.14 68.858 C 41.14 68.7 41.14 68.543 41.14 68.385 C 41.327 68.392 41.473 68.363 41.569 68.29 C 41.461 67.564 41.577 66.641 41.033 66.3 C 40.671 66.816 41.436 67.052 41.247 67.721 C 40.949 67.963 40.472 68.049 39.852 68.005 C 39.801 68.303 40.004 68.376 40.067 68.574 C 40.469 68.645 40.301 68.212 40.603 68.195 C 40.649 68.376 40.91 68.367 40.818 68.669 C 40.733 68.878 40.314 68.792 40.282 69.048 C 41.017 70.168 42.017 71.052 43.394 71.606 Z M 46.184 66.964 C 46.304 67.804 46.755 68.355 47.149 68.953 C 47.004 68.984 46.944 69.088 46.721 69.048 C 47.04 69.693 46.402 70.109 46.721 70.754 C 47.024 70.832 46.998 70.621 47.257 70.659 C 47.433 70.404 47.111 70.173 47.364 69.902 C 47.791 70.095 48.167 69.83 48.115 69.333 C 47.629 69.282 47.829 69.838 47.364 69.806 C 47.274 69.252 47.684 69.141 47.794 68.764 C 47.721 68.513 47.198 68.658 47.258 68.291 C 47.651 68.221 47.854 68.524 48.116 68.291 C 48.115 67.624 47.042 68.486 47.15 67.723 C 47.497 67.682 48.078 67.847 48.116 67.533 C 47.787 67.286 46.781 67.639 46.721 67.154 C 47.367 67.093 48.385 67.359 48.438 66.776 C 47.973 66.735 46.867 66.885 46.184 66.964 Z M 76.127 67.153 C 75.797 67.096 75.567 66.952 75.268 66.869 C 75.276 67.151 75.951 67.332 76.127 67.153 Z M 67.541 67.721 C 68.069 67.944 68.159 66.954 67.755 66.964 C 67.824 67.34 67.471 67.344 67.541 67.721 Z M 36.955 67.153 C 37.123 67.89 37.819 68.663 37.706 69.332 C 37.484 69.306 37.605 68.979 37.383 68.953 C 37.103 69.642 37.315 70.388 37.169 71.038 C 37.206 71.526 39.067 72.051 39.208 71.227 C 38.762 71.063 38.618 71.644 38.349 71.322 C 38.428 71.044 38.684 70.922 39.101 70.943 C 39.145 70.494 39.048 70.168 38.886 69.902 C 38.589 69.807 38.582 70.439 38.349 70.09 C 38.38 69.739 38.917 69.834 38.886 69.427 C 38.379 68.605 37.929 67.249 36.955 67.153 Z M 79.023 68.196 C 78.189 67.89 77.097 67.308 76.233 67.343 C 77.122 67.6 78.122 68.264 79.023 68.196 Z M 77.092 68.1 C 76.825 68.168 76.651 67.684 76.448 68.005 C 76.562 68.074 76.943 68.376 77.092 68.1 Z M 48.437 68.67 C 48.862 68.779 49.008 68.229 48.652 68.196 C 48.607 68.376 48.346 68.367 48.437 68.67 Z M 45.861 72.458 C 46.591 72.502 46.322 71.666 46.935 71.606 C 47.263 71.758 47.464 72.023 47.579 72.364 C 48.759 72.019 48.872 72.76 49.511 73.122 C 49.759 72.927 49.585 72.304 49.511 72.079 C 49.103 71.918 48.222 72.049 47.686 71.796 C 47.559 71.735 47.493 71.322 47.363 71.227 C 47.149 71.07 46.844 71.187 46.72 71.132 C 46.002 70.817 46.455 70.181 46.075 69.9 C 45.584 70.712 46.588 71.589 45.861 72.458 Z M 77.092 70.469 C 76.806 70.54 76.145 71.16 76.556 71.227 C 77.567 71.221 77.887 69.834 76.77 69.995 C 76.982 70.061 77.056 70.249 77.092 70.469 Z M 48.223 71.227 C 48.223 71.101 48.223 70.974 48.223 70.848 C 48.115 70.848 48.008 70.848 47.901 70.848 C 47.871 71.095 47.94 71.256 48.223 71.227 Z M 44.682 71.701 C 44.492 71.616 44.545 71.316 44.145 71.417 C 44.151 72.038 44.182 72.49 44.253 72.838 C 45.028 72.832 45.047 72.432 45.111 71.985 C 45.75 72.132 45.882 71.457 45.647 71.133 C 45.54 71.133 45.433 71.133 45.325 71.133 C 45.287 71.477 45.072 71.666 44.682 71.701 Z M 84.176 73.407 C 83.752 72.864 83.173 72.458 82.566 72.08 C 83.003 72.608 83.397 73.178 84.176 73.407 Z M 38.242 72.364 C 38.308 72.843 38.792 72.953 38.779 73.502 C 38.672 73.755 38.125 73.618 38.134 73.975 C 38.77 74.771 40.131 74.928 41.247 75.302 C 41.359 74.381 41.122 73.769 40.818 73.217 C 40.766 72.919 41.31 73.146 41.355 72.933 C 40.342 72.696 39.238 72.421 38.242 72.364 Z M 45.969 74.449 C 46.535 73.552 47.938 73.455 49.188 73.596 C 48.385 72.342 44.8 72.892 45.969 74.449 Z M 94.8 75.68 C 95.502 74.66 94.015 74.477 93.297 74.164 C 92.425 73.784 91.643 73.179 90.937 72.932 C 90.912 72.858 90.846 72.823 90.722 72.837 C 91.503 74.295 93.089 75.043 94.8 75.68 Z M 44.574 73.691 C 44.989 73.765 45.196 73.111 44.788 73.028 C 44.766 73.303 44.368 73.497 44.574 73.691 Z M 68.4 73.88 C 68.312 74.148 68.551 74.126 68.507 74.354 C 67.653 74.784 66.503 74.366 65.931 75.016 C 66.637 75.056 68.214 75.084 68.828 74.732 C 69.612 75.114 70.807 75.638 71.833 75.49 C 71.213 74.925 69.291 75.135 69.687 73.974 C 69.215 73.876 68.825 73.791 68.4 73.88 Z M 85.034 73.975 C 84.982 74.273 85.227 74.309 85.141 74.638 C 85.734 74.748 86.261 74.327 87.073 74.354 C 86.817 73.837 85.734 73.816 85.034 73.975 Z M 86.107 75.207 C 85.814 75.463 86.385 75.442 86.322 75.775 C 86.13 75.921 85.784 75.932 85.892 76.343 C 86.52 76.392 86.342 75.731 86.859 75.68 C 87.975 75.682 88.845 76.376 89.863 76.154 C 89.955 75.693 89.166 76.01 89.219 75.585 C 89.738 75.379 90.577 76.44 91.258 75.774 C 90.811 75.569 89.895 75.779 89.97 75.111 C 90.82 74.962 91.356 75.589 92.009 75.301 C 90.452 74.58 87.658 74.447 86.107 75.207 Z M 41.784 76.343 C 40.707 75.652 39.268 75.28 38.028 74.732 C 38.402 75.982 40.2 76.477 41.784 76.343 Z M 51.979 75.775 C 51.957 76.323 52.226 76.736 51.872 77.102 C 51.643 76.735 51.031 76.706 51.013 76.155 C 50.585 76.093 50.706 76.515 50.691 76.817 C 51.151 76.949 51.564 77.12 51.979 77.291 C 52.117 77.033 52.529 77.018 52.623 76.722 C 52.411 76.657 52.337 76.47 52.301 76.249 C 52.454 76.227 52.482 76.093 52.623 76.06 C 52.855 76.758 55.048 75.965 54.34 77.008 C 54.425 77.405 54.758 77.3 54.554 77.765 C 54.813 77.727 54.787 77.938 55.091 77.86 C 55.166 77.351 54.56 77.445 54.554 77.008 C 54.615 76.87 54.722 76.776 54.876 76.723 C 55.062 77.013 55.752 77.449 55.95 76.912 C 55.335 76.666 54.363 76.734 54.448 75.87 C 54.037 75.725 53.464 75.927 52.945 75.965 C 52.921 75.786 53.066 75.756 53.052 75.586 C 52.527 75.501 52.548 75.898 51.979 75.775 Z M 92.225 76.059 C 92.745 75.99 93.219 76.32 93.512 76.155 C 93.487 75.442 92.383 75.502 92.225 76.059 Z M 38.134 76.343 C 38.275 76.82 39.192 76.61 39.208 77.196 C 39.974 77.013 40.794 77.465 41.033 78.048 C 40.819 78.05 40.896 78.307 40.603 78.238 C 39.931 77.875 38.882 77.554 38.134 77.006 C 37.623 78.251 40.04 78.456 41.14 78.901 C 41.17 78.329 41.053 77.626 41.247 77.196 C 40.086 76.926 39.228 76.389 38.242 75.964 C 38.208 76.093 38.09 76.145 38.134 76.343 Z M 56.701 76.533 C 56.699 76.12 55.635 76.151 55.413 76.249 C 55.849 76.31 56.343 76.705 56.701 76.533 Z M 53.803 76.817 C 53.615 76.871 53.173 76.702 53.16 76.912 C 53.405 76.984 53.829 77.268 53.803 76.817 Z M 53.803 77.764 C 54.256 77.839 54.17 77.257 53.803 77.291 C 53.803 77.449 53.803 77.607 53.803 77.764 Z M 53.267 78.048 C 52.188 77.846 51.149 77.537 49.833 77.764 C 51.71 78.254 54.059 78.833 56.378 78.617 C 55.646 78.65 54.844 78.133 53.696 78.238 C 53.465 78.134 53.983 77.673 53.374 77.764 C 53.081 77.532 53.754 78.048 53.267 78.048 Z M 38.671 79.091 C 38.437 79.074 38.33 79.169 38.349 79.375 C 38.628 79.446 38.712 79.686 38.994 79.754 C 39.714 79.122 40.319 79.859 41.247 79.849 C 40.488 79.162 39.273 78.876 38.242 78.428 C 38.213 78.801 38.701 78.717 38.671 79.091 Z M 66.681 79.47 C 68.011 79.66 70.338 79.854 71.619 79.47 C 69.879 79.393 68.257 79.22 66.681 79.47 Z M 48.545 79.564 C 50.068 80.309 53.81 80.911 56.164 80.607 C 53.807 80.159 51.04 79.575 48.545 79.564 Z M 75.482 79.564 C 75.545 80.377 74.905 80.571 74.624 81.081 C 74.508 82.194 74.77 82.973 75.375 83.449 C 76.276 83.177 77.59 83.5 78.166 82.786 C 77.678 82.385 77.519 83.321 77.093 82.975 C 77.282 82.669 77.352 82.257 77.951 82.312 C 77.25 81.46 78.34 80.076 77.307 79.469 C 76.576 79.443 75.876 79.559 75.482 79.564 Z M 74.301 79.944 C 74.513 80.119 75.091 80.085 74.945 79.66 C 74.566 79.609 74.392 79.74 74.301 79.944 Z M 39.315 80.323 C 39.379 80.519 39.183 80.946 39.423 80.987 C 39.802 80.752 40.133 80.477 40.174 79.945 C 40.067 79.945 39.96 79.945 39.853 79.945 C 39.927 80.294 39.682 80.362 39.315 80.323 Z M 39.745 81.46 C 39.477 81.019 38.975 81.287 38.672 80.987 C 38.762 80.876 38.813 80.733 38.78 80.513 C 38.451 80.582 38.464 80.349 38.135 80.418 C 38.077 80.754 38.515 80.65 38.457 80.987 C 38.121 80.941 38.019 81.105 37.92 81.27 C 38.635 81.716 39.838 82.012 40.819 81.933 C 40.662 81.563 40.955 81.072 40.926 80.323 C 40.713 80.322 40.789 80.065 40.496 80.134 C 40.768 80.788 40.392 81.34 39.745 81.46 Z M 52.623 81.839 C 52.662 81.154 51.709 80.903 51.121 81.081 C 51.197 81.692 52.111 81.908 52.623 81.839 Z M 49.511 80.986 C 49.097 80.481 47.957 80.63 47.363 80.701 C 47.713 80.772 47.69 81.171 47.9 81.365 C 48.037 81.138 48.25 80.979 48.651 80.986 C 48.896 81.117 49.067 81.314 49.296 81.46 C 49.908 81.007 50.241 81.614 50.905 81.648 C 50.931 81.513 51.081 81.489 51.12 81.364 C 50.847 80.979 50.073 80.555 49.511 80.986 Z M 52.73 81.365 C 52.783 82.035 53.71 82.149 54.448 81.933 C 54.908 82.379 55.465 82.242 56.164 82.122 C 56.289 82.235 56.286 82.457 56.272 82.691 C 56.648 82.644 56.971 82.549 57.452 82.596 C 57.4 82.298 57.781 82.382 57.667 82.027 C 57.15 82.553 56.345 82.206 56.057 81.744 C 54.913 82.136 53.874 81.213 52.73 81.365 Z M 70.76 81.554 C 71.221 81.797 72.604 81.901 72.906 81.46 C 72.409 81.183 71.128 81.168 70.76 81.554 Z M 55.306 82.597 C 53.047 82.411 50.836 81.68 48.545 81.839 C 50.531 82.208 53.265 82.906 55.306 82.597 Z M 37.813 82.313 C 38.795 82.613 39.76 82.931 40.818 83.165 C 40.818 83.007 40.818 82.849 40.818 82.692 C 39.78 82.741 39.127 82.092 38.028 81.933 C 37.972 82.074 37.869 82.172 37.813 82.313 Z M 50.584 82.88 C 51.134 82.95 52.466 83.172 52.73 82.88 C 52.284 82.606 50.948 82.397 50.584 82.88 Z M 38.349 88.092 C 38.065 87.839 37.839 88.122 37.598 88.186 C 37.532 88.587 38.182 88.666 37.92 88.945 C 37.763 89.278 36.88 88.973 36.847 89.418 C 37.12 89.429 37.263 89.556 37.276 89.797 C 36.84 90.232 36.73 90.957 35.881 91.029 C 35.804 91.319 36.067 91.307 35.988 91.597 C 35.835 91.619 35.807 91.753 35.667 91.787 C 35.143 91.858 34.833 91.382 34.486 91.597 C 35.185 92.309 34.557 93.884 33.413 93.492 C 33.697 93.143 34.109 92.906 34.164 92.355 C 34.044 92.335 33.997 92.251 33.949 92.166 C 33.521 92.072 33.626 92.45 33.198 92.355 C 33.376 91.798 33.229 91.514 32.983 91.124 C 33.363 89.656 34.421 88.291 34.701 87.05 C 33.129 88.546 30.936 92.039 33.306 93.966 C 33.644 94.012 33.684 93.796 34.057 93.871 C 34.114 94.206 33.677 94.104 33.734 94.44 C 34.063 94.508 34.125 94.343 34.379 94.344 C 36.403 91.079 39.038 88.353 41.355 85.344 C 41.948 85.237 42.237 84.861 42.321 84.302 C 40.846 83.834 39.411 83.333 38.028 82.786 C 37.341 83.533 38.371 84.27 37.491 84.775 C 37.85 85.236 38.26 84.555 38.671 84.68 C 38.481 84.429 38.269 83.827 38.457 83.544 C 39.457 83.562 38.768 84.547 39.315 84.87 C 39.494 84.68 39.305 84.167 39.529 84.018 C 39.935 84.007 40.107 84.203 40.173 84.491 C 39.684 84.754 39.276 85.088 38.671 85.248 C 38.417 85.916 39.005 86.213 38.563 86.481 C 38.014 86.245 38.533 85.517 37.92 85.248 C 37.672 85.45 38.243 86.499 37.705 86.67 C 36.654 86.693 37.341 85.753 36.417 85.722 C 36.783 86.527 35.321 86.438 36.202 86.859 C 36.263 86.628 36.294 86.372 36.632 86.386 C 37.185 86.82 36.807 87.635 36.632 88.186 C 36.311 88.073 36.267 88.16 35.988 88.281 C 36.265 88.785 35.904 89.272 35.666 89.607 C 34.771 89.696 35.449 88.857 34.807 88.85 C 34.538 89.194 35.465 89.555 35.022 90.082 C 35.182 90.193 35.502 90.163 35.451 90.461 C 35.867 90.355 36.525 90.461 36.524 89.987 C 36.044 90 35.928 90.156 35.881 89.703 C 35.879 89.322 36.741 89.705 36.739 89.324 C 36.519 89.171 36.468 88.868 36.309 88.66 C 36.592 88.244 36.943 88.81 37.276 88.565 C 37.182 88.331 37.066 87.831 37.276 87.618 C 37.86 88.02 38.622 87.006 38.993 87.523 C 38.594 87.739 38.545 88.264 38.134 88.471 C 38.012 88.173 38.304 88.24 38.349 88.092 Z M 48.974 83.923 C 50.16 83.784 52.422 84.263 53.803 84.113 C 54.247 84.422 53.991 84.56 53.696 84.87 C 54.075 84.92 54.176 85.147 54.554 84.965 C 54.554 84.555 54.306 84.363 54.34 83.923 C 52.427 83.236 49.94 83.533 48.008 82.786 C 47.997 83.46 48.767 83.442 48.974 83.923 Z M 63.57 83.165 C 65.934 83.717 70.67 83.813 73.014 83.165 C 69.782 82.904 66.4 82.805 63.57 83.165 Z M 85.034 83.639 C 85.38 83.502 85.804 83.433 85.785 82.975 C 85.37 83.052 85.308 83.439 85.034 83.639 Z M 49.403 84.586 C 50.625 84.694 52.642 85.176 53.588 84.775 C 51.721 84.097 49.204 84.687 47.686 83.639 C 47.596 84.582 48.447 84.503 49.403 84.586 Z M 67.004 85.06 C 66.762 84.76 65.871 84.83 65.716 85.155 C 66.376 85.381 67.16 84.916 67.432 85.439 C 67.266 85.793 66.949 85.866 66.467 85.724 C 66.481 86.253 66.959 85.79 67.432 85.913 C 67.543 85.537 67.703 85.204 68.292 85.249 C 68.28 84.728 67.287 84.821 67.004 85.06 Z M 36.847 85.06 C 36.882 85.283 37.016 85.416 36.955 85.724 C 37.229 85.621 37.466 86.011 37.598 85.724 C 37.004 85.681 37.213 85.26 37.491 85.06 C 37.153 85.107 37.072 84.854 36.847 85.06 Z M 68.721 85.154 C 68.904 85.295 69.714 85.562 69.687 85.06 C 69.368 85.063 68.829 84.778 68.721 85.154 Z M 47.364 86.386 C 47.868 86.483 47.848 86.118 48.008 85.913 C 49.043 85.684 49.825 86.21 50.906 86.008 C 51.016 86.29 51.11 86.585 51.442 86.671 C 52.678 86.219 54.21 86.465 55.842 86.576 C 53.456 85.58 49.398 85.345 46.613 85.534 C 47.264 85.464 46.947 86.25 47.364 86.386 Z M 67.862 86.007 C 68.671 85.717 69.718 86.205 70.331 85.723 C 69.499 85.809 68.502 85.427 67.862 86.007 Z M 70.975 85.818 C 70.988 86.027 71.431 85.858 71.619 85.913 C 71.787 85.587 70.9 85.463 70.975 85.818 Z M 59.814 94.344 C 60.678 94.04 61.548 93.361 62.711 93.871 C 62.975 93.64 62.632 93.461 62.711 93.114 C 64.264 92.748 65.239 91.872 66.467 91.218 C 65.871 91.217 66.19 90.271 66.681 90.366 C 67.121 90.6 66.715 90.964 66.575 91.218 C 67.91 90.566 69.133 89.814 70.008 88.755 C 69.582 88.673 69.469 88.673 69.043 88.755 C 69.184 87.947 68.469 87.727 68.935 87.144 C 66.686 86.862 63.954 86.694 61.637 86.765 C 62.374 87.451 63.709 88.057 62.389 89.038 C 61.566 88.695 61.545 89.699 60.993 89.891 C 61.169 90.083 61.483 90.153 61.53 90.459 C 60.896 90.501 60.443 90.7 60.456 91.312 C 60.73 91.262 60.832 91.186 60.993 91.407 C 60.981 91.828 61.293 91.963 61.207 92.45 C 60.876 92.515 61.001 92.515 60.67 92.45 C 60.478 93.013 60.796 92.92 60.993 93.302 C 60.816 93.78 59.731 93.954 59.814 94.344 Z M 48.867 87.05 C 48.583 87.021 48.514 87.181 48.545 87.429 C 49.115 87.399 49.495 87.538 49.403 88.092 C 48.905 88.123 48.439 88.123 48.33 87.808 C 48.108 88.095 47.081 88.207 48.223 88.187 C 48.248 88.322 48.399 88.347 48.437 88.471 C 48.517 88.818 48.174 88.998 48.437 89.229 C 49.18 89.347 48.673 88.363 49.188 88.282 C 49.627 88.178 49.718 88.383 49.833 88.565 C 49.701 88.134 50.209 88.266 50.262 87.998 C 49.598 88.047 49.981 87.144 50.584 87.429 C 50.52 87.675 50.627 87.77 50.906 87.713 C 50.948 87.293 50.372 86.925 50.369 86.86 C 50.371 87.472 49.051 87.416 48.867 87.05 Z M 73.014 87.334 C 73.587 87.796 71.905 88.362 72.155 88.85 C 72.738 88.196 73.605 87.792 73.873 86.86 C 73.549 86.986 73.238 87.122 73.014 87.334 Z M 52.194 88.66 C 52.667 88.699 52.631 88.288 52.729 87.997 C 52.238 87.989 52.406 87.398 52.194 87.144 C 51.81 87.595 51.864 88.21 52.194 88.66 Z M 35.237 87.713 C 35.585 87.659 35.776 87.742 35.881 87.902 C 35.829 87.604 36.373 87.831 36.418 87.618 C 36 87.493 35.393 87.45 35.237 87.713 Z M 61.316 88.471 C 61.548 88.55 61.682 88.717 62.067 88.66 C 62.005 88.352 62.14 88.219 62.175 87.997 C 61.669 87.961 61.253 88.005 61.316 88.471 Z M 56.701 88.85 C 56.781 88.558 56.406 88.667 56.487 88.377 C 56.331 88.428 55.932 88.265 55.95 88.471 C 56.263 88.542 56.483 88.695 56.701 88.85 Z M 71.082 88.945 C 71.364 88.972 71.543 88.911 71.511 88.66 C 71.231 88.634 71.049 88.695 71.082 88.945 Z M 71.296 89.607 C 71.464 89.471 71.671 89.369 71.727 89.134 C 71.466 89.134 71.04 89.466 71.296 89.607 Z M 70.116 89.797 C 70.39 89.786 70.533 89.66 70.546 89.418 C 70.271 89.429 70.129 89.556 70.116 89.797 Z M 34.379 90.65 C 34.363 90.885 34.547 90.943 34.593 91.124 C 34.846 91.125 34.909 90.96 35.237 91.029 C 35.237 90.903 35.237 90.776 35.237 90.65 C 34.851 90.617 34.72 90.505 34.379 90.65 Z M 33.949 91.787 C 34.168 91.695 34.182 91.424 34.164 91.124 C 33.63 90.964 33.369 91.805 33.949 91.787 Z M 60.136 92.26 C 60.384 92.23 60.547 92.276 60.672 92.355 C 60.528 92.072 60.34 91.827 60.242 91.503 C 60.266 91.807 60.053 91.904 60.136 92.26 Z M 47.257 93.587 C 47.119 93.457 46.79 93.493 46.506 93.492 C 46.374 93.807 47.231 93.724 47.257 93.587 Z M 32.769 94.25 C 32.732 94.03 32.699 93.806 32.34 93.871 C 32.203 94.245 32.633 94.117 32.769 94.25 Z M 61.209 94.44 C 61.487 94.638 62.123 94.546 62.067 94.156 C 61.781 93.914 61.129 93.879 61.209 94.44 Z M 33.413 95.008 C 33.431 94.898 33.582 94.905 33.734 94.913 C 33.751 94.456 33.179 94.52 32.876 94.344 C 32.966 94.645 33.189 94.826 33.413 95.008 Z M 60.028 94.819 C 60.296 95.009 60.911 94.897 60.887 94.535 C 60.609 94.337 59.972 94.428 60.028 94.819 Z M 58.848 95.576 C 59.248 95.614 59.477 95.5 59.491 95.197 C 59.277 95.197 59.062 95.197 58.848 95.197 C 58.848 95.324 58.848 95.45 58.848 95.576 Z M 50.691 96.429 C 50.637 96.802 51.437 96.602 51.335 96.335 C 51.071 96.322 50.818 96.321 50.691 96.429 Z M 43.394 96.997 C 45.026 97.045 48.074 97.214 49.833 96.619 C 47.989 96.653 45.304 96.712 43.394 96.997 Z M 52.516 97.376 C 52.76 97.245 52.932 97.049 53.161 96.903 C 53.017 96.903 52.874 96.903 52.73 96.903 C 52.76 97.098 52.328 97.354 52.516 97.376 Z M 50.369 97.661 C 50.839 97.539 51.442 97.535 51.764 97.282 C 51.222 96.892 50.6 97.243 50.369 97.661 Z M 41.569 97.472 C 41.852 97.571 42.228 97.585 42.642 97.567 C 42.636 97.107 41.642 97.333 41.569 97.472 Z M 42.857 97.566 C 43.891 97.686 45.154 97.763 46.184 97.755 C 47.266 97.747 48.372 97.896 49.188 97.755 C 47.191 97.325 44.803 97.51 42.857 97.566 Z M 45.54 98.42 C 44.38 97.987 42.293 98.048 41.247 98.041 C 42.246 98.435 44.376 98.796 45.54 98.42 Z M 46.613 98.893 C 47.125 98.966 47.304 98.745 47.794 98.798 C 47.736 98.428 46.589 98.576 46.613 98.893 Z" style="stroke: none; fill: rgb(0, 0, 0);"/>
</svg>